<mxfile host="app.diagrams.net" agent="Mozilla/5.0 (X11; Linux x86_64) AppleWebKit/537.36 (KHTML, like Gecko) Chrome/127.0.0.0 Safari/537.36" version="26.1.3">
  <diagram name="Page-1" id="mKq8Ci4f9-ugy-U0Fv8y">
    <mxGraphModel dx="1176" dy="1713" grid="0" gridSize="10" guides="1" tooltips="1" connect="1" arrows="1" fold="1" page="0" pageScale="1" pageWidth="827" pageHeight="1169" math="0" shadow="0">
      <root>
        <mxCell id="0" />
        <mxCell id="1" parent="0" />
        <mxCell id="FoFLkZcdfndVH7omrUEX-2" value="Gateway" style="ellipse;whiteSpace=wrap;html=1;aspect=fixed;" vertex="1" parent="1">
          <mxGeometry x="-293" y="36" width="80" height="80" as="geometry" />
        </mxCell>
        <mxCell id="FoFLkZcdfndVH7omrUEX-3" value="Get / User Profile" style="rounded=0;whiteSpace=wrap;html=1;" vertex="1" parent="1">
          <mxGeometry x="-117" y="-124" width="120" height="60" as="geometry" />
        </mxCell>
        <mxCell id="FoFLkZcdfndVH7omrUEX-4" value="add / friends" style="rounded=0;whiteSpace=wrap;html=1;" vertex="1" parent="1">
          <mxGeometry x="-54" y="-7" width="120" height="60" as="geometry" />
        </mxCell>
        <mxCell id="FoFLkZcdfndVH7omrUEX-5" value="" style="rounded=0;whiteSpace=wrap;html=1;" vertex="1" parent="1">
          <mxGeometry x="-51" y="113" width="120" height="60" as="geometry" />
        </mxCell>
        <mxCell id="FoFLkZcdfndVH7omrUEX-6" value="" style="rounded=0;whiteSpace=wrap;html=1;" vertex="1" parent="1">
          <mxGeometry x="-117" y="246" width="120" height="60" as="geometry" />
        </mxCell>
        <mxCell id="FoFLkZcdfndVH7omrUEX-7" value="" style="endArrow=classic;html=1;rounded=0;fontSize=12;startSize=8;endSize=8;curved=1;" edge="1" parent="1" target="FoFLkZcdfndVH7omrUEX-2">
          <mxGeometry width="50" height="50" relative="1" as="geometry">
            <mxPoint x="-370" y="76" as="sourcePoint" />
            <mxPoint x="-312" y="75.5" as="targetPoint" />
          </mxGeometry>
        </mxCell>
        <mxCell id="FoFLkZcdfndVH7omrUEX-8" value="Auth&amp;nbsp;&lt;div&gt;Signin / login&lt;/div&gt;" style="rounded=0;whiteSpace=wrap;html=1;" vertex="1" parent="1">
          <mxGeometry x="-179" y="-233" width="120" height="60" as="geometry" />
        </mxCell>
        <mxCell id="FoFLkZcdfndVH7omrUEX-9" value="" style="endArrow=classic;html=1;rounded=0;fontSize=12;startSize=8;endSize=8;curved=1;entryX=0;entryY=0.5;entryDx=0;entryDy=0;exitX=0.5;exitY=0;exitDx=0;exitDy=0;" edge="1" parent="1" source="FoFLkZcdfndVH7omrUEX-2" target="FoFLkZcdfndVH7omrUEX-8">
          <mxGeometry width="50" height="50" relative="1" as="geometry">
            <mxPoint x="-255" y="17" as="sourcePoint" />
            <mxPoint x="-205" y="-33" as="targetPoint" />
          </mxGeometry>
        </mxCell>
        <mxCell id="FoFLkZcdfndVH7omrUEX-10" value="" style="endArrow=classic;html=1;rounded=0;fontSize=12;startSize=8;endSize=8;curved=1;exitX=1;exitY=0;exitDx=0;exitDy=0;entryX=0;entryY=0.5;entryDx=0;entryDy=0;" edge="1" parent="1" source="FoFLkZcdfndVH7omrUEX-2" target="FoFLkZcdfndVH7omrUEX-3">
          <mxGeometry width="50" height="50" relative="1" as="geometry">
            <mxPoint x="-199" y="48" as="sourcePoint" />
            <mxPoint x="-149" y="-2" as="targetPoint" />
          </mxGeometry>
        </mxCell>
        <mxCell id="FoFLkZcdfndVH7omrUEX-11" value="RDBS" style="shape=datastore;whiteSpace=wrap;html=1;" vertex="1" parent="1">
          <mxGeometry x="-51" y="-375" width="60" height="60" as="geometry" />
        </mxCell>
        <mxCell id="FoFLkZcdfndVH7omrUEX-12" value="" style="endArrow=classic;html=1;rounded=0;fontSize=12;startSize=8;endSize=8;curved=1;exitX=0.5;exitY=0;exitDx=0;exitDy=0;entryX=0;entryY=0.5;entryDx=0;entryDy=0;" edge="1" parent="1" source="FoFLkZcdfndVH7omrUEX-8" target="FoFLkZcdfndVH7omrUEX-11">
          <mxGeometry width="50" height="50" relative="1" as="geometry">
            <mxPoint x="-130" y="-251" as="sourcePoint" />
            <mxPoint x="-80" y="-301" as="targetPoint" />
          </mxGeometry>
        </mxCell>
        <mxCell id="FoFLkZcdfndVH7omrUEX-13" value="" style="endArrow=classic;html=1;rounded=0;fontSize=12;startSize=8;endSize=8;curved=1;exitX=0.5;exitY=1;exitDx=0;exitDy=0;entryX=0.75;entryY=0;entryDx=0;entryDy=0;" edge="1" parent="1" source="FoFLkZcdfndVH7omrUEX-11" target="FoFLkZcdfndVH7omrUEX-8">
          <mxGeometry width="50" height="50" relative="1" as="geometry">
            <mxPoint x="65" y="-278" as="sourcePoint" />
            <mxPoint x="115" y="-328" as="targetPoint" />
          </mxGeometry>
        </mxCell>
        <mxCell id="FoFLkZcdfndVH7omrUEX-14" value="id" style="edgeLabel;html=1;align=center;verticalAlign=middle;resizable=0;points=[];fontSize=12;" vertex="1" connectable="0" parent="FoFLkZcdfndVH7omrUEX-13">
          <mxGeometry x="0.0248" y="-2" relative="1" as="geometry">
            <mxPoint as="offset" />
          </mxGeometry>
        </mxCell>
        <mxCell id="FoFLkZcdfndVH7omrUEX-17" value="Mongo" style="shape=datastore;whiteSpace=wrap;html=1;" vertex="1" parent="1">
          <mxGeometry x="52" y="-204" width="60" height="60" as="geometry" />
        </mxCell>
        <mxCell id="FoFLkZcdfndVH7omrUEX-19" value="" style="endArrow=classic;html=1;rounded=0;fontSize=12;startSize=8;endSize=8;curved=1;exitX=1;exitY=0.5;exitDx=0;exitDy=0;entryX=0.5;entryY=1;entryDx=0;entryDy=0;" edge="1" parent="1" source="FoFLkZcdfndVH7omrUEX-3" target="FoFLkZcdfndVH7omrUEX-17">
          <mxGeometry width="50" height="50" relative="1" as="geometry">
            <mxPoint x="28" y="-72" as="sourcePoint" />
            <mxPoint x="78" y="-122" as="targetPoint" />
          </mxGeometry>
        </mxCell>
        <mxCell id="FoFLkZcdfndVH7omrUEX-20" value="id" style="edgeLabel;html=1;align=center;verticalAlign=middle;resizable=0;points=[];fontSize=12;" vertex="1" connectable="0" parent="FoFLkZcdfndVH7omrUEX-19">
          <mxGeometry x="-0.1715" y="-2" relative="1" as="geometry">
            <mxPoint as="offset" />
          </mxGeometry>
        </mxCell>
        <mxCell id="FoFLkZcdfndVH7omrUEX-22" value="" style="swimlane;startSize=0;" vertex="1" parent="1">
          <mxGeometry x="332" y="-530" width="522" height="482" as="geometry" />
        </mxCell>
        <mxCell id="FoFLkZcdfndVH7omrUEX-23" value="&lt;div&gt;Users #&lt;/div&gt;&lt;div&gt;User Id, Email, Password&lt;/div&gt;" style="whiteSpace=wrap;html=1;" vertex="1" parent="FoFLkZcdfndVH7omrUEX-22">
          <mxGeometry x="9" y="15" width="120" height="60" as="geometry" />
        </mxCell>
        <mxCell id="FoFLkZcdfndVH7omrUEX-24" value="Transections #&lt;div&gt;Transection Id, From, to, amount, Currency, date&lt;/div&gt;" style="rounded=0;whiteSpace=wrap;html=1;" vertex="1" parent="FoFLkZcdfndVH7omrUEX-22">
          <mxGeometry x="161" y="15" width="157" height="60" as="geometry" />
        </mxCell>
        <mxCell id="FoFLkZcdfndVH7omrUEX-25" value="User id, User name, blah, blah..&lt;div&gt;Friends,&lt;/div&gt;&lt;div&gt;Groups,&lt;/div&gt;" style="rounded=1;whiteSpace=wrap;html=1;" vertex="1" parent="FoFLkZcdfndVH7omrUEX-22">
          <mxGeometry x="35" y="247" width="217" height="200" as="geometry" />
        </mxCell>
        <mxCell id="FoFLkZcdfndVH7omrUEX-26" value="NOSQL" style="text;html=1;align=center;verticalAlign=middle;whiteSpace=wrap;rounded=0;" vertex="1" parent="FoFLkZcdfndVH7omrUEX-22">
          <mxGeometry x="110" y="452" width="60" height="30" as="geometry" />
        </mxCell>
        <mxCell id="FoFLkZcdfndVH7omrUEX-28" value="" style="endArrow=classic;html=1;rounded=0;fontSize=12;startSize=8;endSize=8;curved=1;exitX=1;exitY=0.5;exitDx=0;exitDy=0;entryX=0.5;entryY=1;entryDx=0;entryDy=0;" edge="1" parent="FoFLkZcdfndVH7omrUEX-22" source="FoFLkZcdfndVH7omrUEX-25" target="FoFLkZcdfndVH7omrUEX-33">
          <mxGeometry width="50" height="50" relative="1" as="geometry">
            <mxPoint x="339" y="422" as="sourcePoint" />
            <mxPoint x="336" y="217" as="targetPoint" />
          </mxGeometry>
        </mxCell>
        <mxCell id="FoFLkZcdfndVH7omrUEX-33" value="Groups #&lt;div&gt;Groups Id, {Member Ids} JSON&lt;/div&gt;" style="rounded=0;whiteSpace=wrap;html=1;" vertex="1" parent="FoFLkZcdfndVH7omrUEX-22">
          <mxGeometry x="344" y="15" width="120" height="60" as="geometry" />
        </mxCell>
        <mxCell id="FoFLkZcdfndVH7omrUEX-31" value="" style="endArrow=classic;html=1;rounded=0;fontSize=12;startSize=8;endSize=8;curved=1;exitX=1;exitY=0.5;exitDx=0;exitDy=0;entryX=0;entryY=0.5;entryDx=0;entryDy=0;" edge="1" parent="1" source="FoFLkZcdfndVH7omrUEX-2" target="FoFLkZcdfndVH7omrUEX-4">
          <mxGeometry width="50" height="50" relative="1" as="geometry">
            <mxPoint x="-172" y="86" as="sourcePoint" />
            <mxPoint x="-122" y="36" as="targetPoint" />
          </mxGeometry>
        </mxCell>
      </root>
    </mxGraphModel>
  </diagram>
</mxfile>
